<svg xmlns="http://www.w3.org/2000/svg" width="46" height="56"><path fill="#FFF" d="M38.593 30.15c.08 8.59 7.535 11.447 7.617 11.483-.062.203-1.19 4.074-3.928 8.072-2.365 3.457-4.82 6.901-8.688 6.974-3.799.069-5.021-2.253-9.365-2.253s-5.702 2.182-9.298 2.322c-3.733.143-6.576-3.738-8.961-7.184-4.875-7.046-8.598-19.91-3.597-28.593 2.484-4.313 6.925-7.043 11.743-7.114 3.666-.069 7.126 2.466 9.366 2.466 2.241 0 6.444-3.049 10.865-2.601 1.851.077 7.044.747 10.38 5.629-.269.168-6.196 3.62-6.134 10.799m-7.14-21.088c1.982-2.4 3.316-5.739 2.952-9.062-2.856.115-6.312 1.904-8.36 4.302-1.836 2.123-3.444 5.522-3.01 8.778 3.183.246 6.435-1.619 8.418-4.018"/></svg>