<svg xmlns="http://www.w3.org/2000/svg" width="18" height="14" viewBox="0 0 17.5 14.663"><path fill="#d22856" d="M11.283.153c1.736-.485 3.074.263 3.685 1.151.694-.226 1.372-.47 2.072-.692-.004.841-.538 1.478-.883 1.727.704.167 1.343-.479 1.343-.479-.175.976-1.035 1.746-1.611 1.977-.239 6.592-3.272 10.955-10.382 10.823h-.46c-.422 0-4.29-.449-5.047-1.843 2.341.192 4.011-.412 4.835-1.149-.989-.293-2.761-.465-3.07-2.881.362.104.583.223 1.228.116C1.757 8.067.385 7.366.461 5.218c.294.32 1.1.523 1.381.462C1.117 5.445-.188 2.399.921.844c1.873 1.81 3.848 3.52 7.369 3.684.216-2.24 1.171-3.741 2.993-4.375z"/></svg>