<svg xmlns="http://www.w3.org/2000/svg" viewBox="521.9 473.1 12.5 12"><path fill="currentColor" d="M530.7 474.5c1.3 0 2.3 1 2.3 2.3 0 .5-.2 1-.5 1.4l-4.3 4.9c-1.8-2-4-4.6-4.3-4.9-.2-.3-.5-.8-.5-1.5 0-1.3 1-2.3 2.3-2.3.8 0 1.5.3 1.9.9.1.2.3.3.6.3.2 0 .5-.1.6-.3.5-.4 1.2-.8 1.9-.8z"/><path fill="#d22856" d="M532.5 478.3c.3-.4.5-.9.5-1.4 0-1.3-1-2.3-2.3-2.3-.7 0-1.4.3-1.9.9-.1.2-.3.3-.6.3-.2 0-.4-.1-.6-.3-.4-.6-1.1-.9-1.9-.9-1.3 0-2.3 1-2.3 2.3 0 .7.3 1.2.5 1.5.2.3 2.5 2.8 4.3 4.9l4.3-5zm-1.8-5.2c2.1 0 3.8 1.7 3.8 3.8 0 .9-.3 1.8-.9 2.4l-4.9 5.6c-.1.2-.3.3-.5.3s-.4-.1-.5-.3c-3.8-4.3-4.7-5.3-4.9-5.6-.5-.7-.8-1.5-.8-2.4 0-2.1 1.7-3.8 3.8-3.8.9 0 1.8.3 2.5.9.6-.6 1.5-.9 2.4-.9z"/></svg>