<?xml version="1.0" encoding="utf-8"?>
<svg xmlns="http://www.w3.org/2000/svg" xmlns:xlink="http://www.w3.org/1999/xlink" width="27" heigth="34"
	 viewBox="0 0 157 203" xml:space="preserve">
<path fill="#d22856" stroke="#231F20" stroke-miterlimit="10" d="M78.805,4.963l-0.807-0.084l-76.69,8.04v140.568L78,199.12l76.692-45.633V12.919
	L78.805,4.963z M144.66,147.783L78,187.446l-66.66-39.663V90.168l66.374,39.506l0.111,7.159l-45.534-27.1l-0.067,6.951
	l45.715,27.475l0.113,7.35l-45.7-27.186l-0.066,6.95L78,158.748l46.152-27.615v-6.982l-0.058,0.034v-2.386v-2.864v-17.456
	l20.566-12.281V147.783z M144.606,81.724L126.37,92.468l-8.419,4.96L77.802,73.544l-0.066,6.951l34.316,20.407l-0.304,0.18
	l-0.739,0.435l-4.876,2.872L77.802,87.535l-0.066,6.951l22.362,13.298l-5.276,3.529l-0.128,0.077l-16.892-9.951l-0.066,6.95
	l11.084,6.527l-11.291,6.779L11.485,82.437l66.139-39.755v0.007L144.606,81.724z M144.66,74.732L77.64,35.224v-0.01l-0.008,0.005
	l-0.008-0.005v0.01L11.34,74.686V21.955l66.661-6.989l66.659,6.989V74.732z"/>
</svg>
