<?xml version="1.0" encoding="utf-8"?>
<svg xmlns="http://www.w3.org/2000/svg" xmlns:xlink="http://www.w3.org/1999/xlink" width="18" height="13"
	 viewBox="0 0 17.988 13.965" fill="#d22856" xml:space="preserve">
<g>
	<g>
		<g>
			<path d="M14.914,1.814C16.111,0.816,15.816,0,14.257,0H3.731C2.171,0,1.877,0.816,3.074,1.814l3.742,3.118
				c1.197,0.998,3.158,0.998,4.355,0L14.914,1.814z"/>
		</g>
		<g>
			<path d="M11.913,7.044C10.715,8.042,9.717,8.87,9.695,8.879c0,0,0,0-0.021,0.014
				C9.601,8.95,9.523,8.995,9.44,9.029C9.407,9.043,9.374,9.063,9.34,9.077C9.23,9.111,9.117,9.135,9.005,9.135
				c-0.003,0-0.007,0.002-0.01,0.002c0,0,0,0-0.001,0c-0.001,0-0.001,0-0.001,0c-0.003,0-0.007-0.002-0.01-0.002
				C8.87,9.133,8.758,9.111,8.648,9.077C8.614,9.063,8.58,9.043,8.548,9.029C8.465,8.995,8.388,8.95,8.313,8.893
				C8.293,8.879,8.293,8.879,8.293,8.879C8.271,8.868,7.273,8.042,6.075,7.044L2.178,3.796C0.979,2.798,0,3.257,0,4.816v6.315
				c0,1.56,1.275,2.834,2.835,2.834h12.318c1.56,0,2.835-1.274,2.835-2.834V4.816c0-1.559-0.979-2.018-2.178-1.02L11.913,7.044z"/>
		</g>
	</g>
</g>
</svg>
