<svg xmlns="http://www.w3.org/2000/svg" xmlns:xlink="http://www.w3.org/1999/xlink">
<symbol id="page-header__logotype-mobile" viewBox="0 0 74.426 22.859">
  <g fill="currentColor">
	<path d="M0,1.449c0-0.708,0.58-1.288,1.256-1.288h7.18c5.087,0,8.436,2.704,8.436,7.147v0.063
		c0,4.861-4.057,7.373-8.854,7.373H2.544v6.825c0,0.708-0.58,1.288-1.288,1.288C0.58,22.859,0,22.279,0,21.571V1.449z M8.114,12.428
		c3.734,0,6.182-1.996,6.182-4.958V7.405c0-3.22-2.415-4.894-6.054-4.894H2.544v9.918H8.114z"/>
	<path d="M21.729,1.288C21.729,0.58,22.308,0,22.983,0c0.709,0,1.288,0.58,1.288,1.288v20.283
		c0,0.708-0.579,1.288-1.288,1.288c-0.676,0-1.255-0.58-1.255-1.288L21.729,1.288L21.729,1.288z"/>
	<path d="M30.87,1.32c0-0.676,0.579-1.256,1.256-1.256h0.354c0.58,0,0.934,0.29,1.288,0.74l13.684,17.449V1.256
		C47.451,0.58,47.998,0,48.707,0c0.676,0,1.223,0.58,1.223,1.256v20.349c0,0.676-0.481,1.19-1.158,1.19h-0.129
		c-0.547,0-0.934-0.321-1.319-0.771L33.349,4.153v17.45c0,0.676-0.547,1.256-1.255,1.256c-0.677,0-1.224-0.58-1.224-1.256V1.32z"/>
	<path d="M56.3,1.288C56.3,0.58,56.879,0,57.557,0c0.707,0,1.286,0.58,1.286,1.288v12.331L71.689,0.451
		C71.978,0.193,72.269,0,72.687,0c0.677,0,1.225,0.612,1.225,1.256c0,0.354-0.161,0.644-0.419,0.901l-7.984,7.92l8.564,10.561
		c0.225,0.29,0.354,0.547,0.354,0.934c0,0.676-0.579,1.288-1.286,1.288c-0.483,0-0.807-0.258-1.031-0.58l-8.402-10.463l-4.861,4.861
		v4.894c0,0.708-0.58,1.288-1.287,1.288c-0.678,0-1.257-0.58-1.257-1.288V1.288H56.3z"/>
  </g>
</symbol>
<symbol id="page-header__logotype-tablet" viewBox="0 0 146.3 40.375">
<g>
	<path fill="currentColor" d="M71.874,18.661c0-0.708,0.58-1.288,1.256-1.288h7.18c5.087,0,8.436,2.704,8.436,7.146v0.063
		c0,4.86-4.057,7.373-8.854,7.373h-5.475v6.825c0,0.708-0.58,1.287-1.289,1.287c-0.676,0-1.256-0.58-1.256-1.287L71.874,18.661
		L71.874,18.661z M79.988,29.641c3.734,0,6.182-1.996,6.182-4.959v-0.063c0-3.221-2.414-4.894-6.053-4.894h-5.699v9.917h5.57V29.641
		z"/>
	<path fill="currentColor" d="M93.603,18.5c0-0.708,0.579-1.288,1.255-1.288c0.709,0,1.288,0.58,1.288,1.288v20.283
		c0,0.708-0.579,1.287-1.288,1.287c-0.676,0-1.255-0.579-1.255-1.287V18.5z"/>
	<path fill="currentColor" d="M102.744,18.532c0-0.676,0.58-1.256,1.256-1.256h0.354c0.58,0,0.935,0.29,1.288,0.74l13.684,17.45V18.468
		c0-0.676,0.547-1.256,1.256-1.256c0.676,0,1.225,0.58,1.225,1.256v20.349c0,0.677-0.48,1.19-1.158,1.19h-0.129
		c-0.548,0-0.936-0.321-1.318-0.772l-13.976-17.867v17.449c0,0.677-0.547,1.257-1.257,1.257c-0.676,0-1.223-0.58-1.223-1.257V18.532
		H102.744z"/>
	<path fill="currentColor" d="M128.173,18.5c0-0.708,0.58-1.288,1.257-1.288c0.708,0,1.286,0.58,1.286,1.288v12.331l12.848-13.168
		c0.29-0.257,0.579-0.451,0.998-0.451c0.676,0,1.225,0.612,1.225,1.256c0,0.354-0.162,0.644-0.42,0.901l-7.984,7.92l8.564,10.561
		c0.225,0.291,0.354,0.547,0.354,0.936c0,0.676-0.577,1.288-1.285,1.288c-0.482,0-0.807-0.259-1.03-0.58l-8.401-10.464l-4.863,4.861
		v4.895c0,0.708-0.578,1.288-1.286,1.288c-0.677,0-1.257-0.58-1.257-1.288V18.5H128.173z"/>
</g>
<path fill="currentColor" d="M60.498,28.266"/>
<path fill="currentColor" d="M60.462,28.016c-0.002-0.009-5.175-21.365-5.175-21.365C54.926,4.303,52.694,0,46.688,0
	c-0.829,0-1.5,0.671-1.5,1.5s0.671,1.5,1.5,1.5c4.856,0,5.575,3.729,5.639,4.143l4.767,19.701h-2.073
	c-0.742-5.927-5.802-10.531-11.927-10.531s-11.186,4.604-11.927,10.531h-1.82c-0.741-5.927-5.802-10.531-11.927-10.531
	S6.235,20.917,5.493,26.844H3.42L8.187,7.143C8.25,6.729,8.97,3,13.826,3c0.829,0,1.5-0.671,1.5-1.5S14.655,0,13.826,0
	C7.82,0,5.588,4.303,5.227,6.651c0,0-5.173,21.356-5.175,21.365c-0.266,1.109,0.531,1.826,1.426,1.826
	c0.012,0,0.023,0.004,0.036,0.004h3.982c0.741,5.926,5.802,10.53,11.927,10.53s11.185-4.604,11.927-10.53h1.814
	c0.742,5.926,5.802,10.53,11.927,10.53s11.186-4.604,11.927-10.53H59c0.012,0,0.023-0.004,0.036-0.004
	C59.931,29.842,60.728,29.125,60.462,28.016z M26.315,29.844c-0.715,4.272-4.421,7.531-8.896,7.531s-8.18-3.259-8.896-7.531
	c-0.082-0.488-0.135-0.988-0.135-1.5c0-0.512,0.053-1.011,0.135-1.5c0.715-4.271,4.421-7.531,8.896-7.531s8.18,3.26,8.896,7.531
	c0.082,0.489,0.135,0.988,0.135,1.5C26.45,28.855,26.397,29.355,26.315,29.844z M51.99,29.844c-0.716,4.272-4.421,7.531-8.896,7.531
	c-4.475,0-8.181-3.259-8.896-7.531c-0.082-0.488-0.135-0.988-0.135-1.5c0-0.512,0.053-1.011,0.135-1.5
	c0.716-4.271,4.421-7.531,8.896-7.531c4.475,0,8.181,3.26,8.896,7.531c0.082,0.489,0.135,0.988,0.135,1.5
	C52.125,28.855,52.072,29.355,51.99,29.844z"/>
</symbol>
<symbol id="page-header__logotype-desktop" viewBox="0 0 146.3 40.375">
<g>
	<path fill="currentColor" d="M71.874,18.661c0-0.708,0.58-1.288,1.256-1.288h7.18c5.087,0,8.436,2.704,8.436,7.146v0.063
		c0,4.86-4.057,7.373-8.854,7.373h-5.475v6.825c0,0.708-0.58,1.287-1.289,1.287c-0.676,0-1.256-0.58-1.256-1.287L71.874,18.661
		L71.874,18.661z M79.988,29.641c3.734,0,6.182-1.996,6.182-4.959v-0.063c0-3.221-2.414-4.894-6.053-4.894h-5.699v9.917h5.57V29.641
		z"/>
	<path fill="currentColor" d="M93.603,18.5c0-0.708,0.579-1.288,1.255-1.288c0.709,0,1.288,0.58,1.288,1.288v20.283
		c0,0.708-0.579,1.287-1.288,1.287c-0.676,0-1.255-0.579-1.255-1.287V18.5z"/>
	<path fill="currentColor" d="M102.744,18.532c0-0.676,0.58-1.256,1.256-1.256h0.354c0.58,0,0.935,0.29,1.288,0.74l13.684,17.45V18.468
		c0-0.676,0.547-1.256,1.256-1.256c0.676,0,1.225,0.58,1.225,1.256v20.349c0,0.677-0.48,1.19-1.158,1.19h-0.129
		c-0.548,0-0.936-0.321-1.318-0.772l-13.976-17.867v17.449c0,0.677-0.547,1.257-1.257,1.257c-0.676,0-1.223-0.58-1.223-1.257V18.532
		H102.744z"/>
	<path fill="currentColor" d="M128.173,18.5c0-0.708,0.58-1.288,1.257-1.288c0.708,0,1.286,0.58,1.286,1.288v12.331l12.848-13.168
		c0.29-0.257,0.579-0.451,0.998-0.451c0.676,0,1.225,0.612,1.225,1.256c0,0.354-0.162,0.644-0.42,0.901l-7.984,7.92l8.564,10.561
		c0.225,0.291,0.354,0.547,0.354,0.936c0,0.676-0.577,1.288-1.285,1.288c-0.482,0-0.807-0.259-1.03-0.58l-8.401-10.464l-4.863,4.861
		v4.895c0,0.708-0.578,1.288-1.286,1.288c-0.677,0-1.257-0.58-1.257-1.288V18.5H128.173z"/>
</g>
<path fill="#D22856" d="M98.498,9.875c-2.002,0-3.623-1.623-3.623-3.624c0,2.001-1.623,3.624-3.625,3.624
	c2.002,0,3.625,1.623,3.625,3.624C94.874,11.498,96.496,9.875,98.498,9.875z"/>
<g>
	<path fill="currentColor" d="M43.094,19.313c0.246,0,0.489,0.014,0.73,0.033c-0.437-0.728-1.227-1.221-2.136-1.221
		c-0.877,0-1.614-0.568-1.884-1.354c-0.727,0.208-1.425,0.482-2.089,0.816c0.062,0.017,0.122,0.038,0.188,0.038c1.104,0,2,0.896,2,2
		c0,0.096-0.015,0.188-0.028,0.281C40.875,19.524,41.959,19.313,43.094,19.313z"/>
	<path fill="currentColor" d="M60.462,28.016c-0.002-0.009-5.175-21.365-5.175-21.365C54.926,4.303,52.694,0,46.688,0
		c-0.829,0-1.5,0.671-1.5,1.5s0.671,1.5,1.5,1.5c4.856,0,5.575,3.729,5.639,4.143l4.767,19.701h-2.073
		c-0.445-3.557-2.453-6.628-5.305-8.522c-0.897,0.379-1.529,1.269-1.529,2.303c0,0.088-0.015,0.171-0.026,0.256
		c1.991,1.358,3.415,3.489,3.829,5.965c0.082,0.488,0.135,0.987,0.135,1.5c0,0.512-0.053,1.012-0.135,1.5
		c-0.716,4.271-4.421,7.53-8.896,7.53c-4.475,0-8.181-3.259-8.896-7.53c-0.082-0.488-0.135-0.988-0.135-1.5
		c0-0.513,0.053-1.012,0.135-1.5c0.147-0.879,0.427-1.712,0.808-2.484c-1.034-0.077-1.852-0.932-1.852-1.984
		c0-0.19-0.077-0.358-0.192-0.488c-0.938,1.469-1.569,3.149-1.795,4.957h-1.82c-0.741-5.927-5.802-10.531-11.927-10.531
		S6.235,20.917,5.493,26.844H3.42L8.187,7.143C8.25,6.729,8.97,3,13.826,3c0.829,0,1.5-0.671,1.5-1.5S14.655,0,13.826,0
		C7.82,0,5.588,4.303,5.227,6.651c0,0-5.173,21.356-5.175,21.365c-0.266,1.109,0.531,1.826,1.426,1.826
		c0.012,0,0.023,0.004,0.036,0.004h3.982c0.079,0.629,0.215,1.237,0.387,1.831c0.059-0.107,0.102-0.224,0.102-0.354
		c0-1.104,0.896-2,2-2c0.166,0,0.324,0.024,0.478,0.063c-0.043-0.343-0.074-0.688-0.074-1.042c0-0.512,0.053-1.011,0.135-1.5
		c0.715-4.271,4.421-7.531,8.896-7.531s8.18,3.26,8.896,7.531c0.082,0.489,0.135,0.988,0.135,1.5c0,0.512-0.053,1.012-0.135,1.5
		c-0.715,4.272-4.421,7.531-8.896,7.531c-2.022,0-3.883-0.67-5.386-1.794c-0.35,0.302-0.8,0.491-1.299,0.491
		c-0.413,0-0.749,0.336-0.749,0.748c0,0.289-0.065,0.563-0.176,0.812c2.075,1.708,4.722,2.743,7.614,2.743
		c6.125,0,11.185-4.604,11.927-10.529h1.814c0.742,5.926,5.802,10.529,11.927,10.529s11.186-4.604,11.927-10.529H59
		c0.012,0,0.023-0.005,0.036-0.005C59.931,29.842,60.728,29.125,60.462,28.016z"/>
</g>
<g>
	<g>
		<path fill="#D22856" d="M50.686,16.125c-2.485,0-4.499-2.014-4.499-4.499c0,2.485-2.014,4.499-4.499,4.499
			c2.485,0,4.499,2.014,4.499,4.499C46.187,18.139,48.2,16.125,50.686,16.125z"/>
	</g>
</g>
<g>
	<g>
		<path fill="#D22856" d="M37.904,19.626c-1.519,0-2.749-1.23-2.749-2.749c0,1.519-1.23,2.749-2.749,2.749
			c1.519,0,2.749,1.229,2.749,2.749C35.155,20.855,36.386,19.626,37.904,19.626z"/>
	</g>
</g>
<g>
	<g>
		<path fill="#D22856" d="M10.734,34.072c-1.519,0-2.749-1.23-2.749-2.75c0,1.52-1.23,2.75-2.749,2.75
			c1.519,0,2.749,1.229,2.749,2.748C7.985,35.303,9.215,34.072,10.734,34.072z"/>
	</g>
</g>
</symbol>
<symbol id="page-footer__logotype-small" viewBox="0 0 146.3 40.375">
  <g>
  <g>
	<path fill="currentColor" d="M71.874,18.661c0-0.708,0.58-1.288,1.256-1.288h7.18c5.087,0,8.436,2.704,8.436,7.146v0.063
		c0,4.859-4.057,7.373-8.854,7.373h-5.475v6.824c0,0.709-0.58,1.287-1.29,1.287c-0.676,0-1.256-0.58-1.256-1.287L71.874,18.661
		L71.874,18.661z M79.988,29.641c3.734,0,6.182-1.996,6.182-4.959V24.62c0-3.222-2.414-4.894-6.053-4.894h-5.699v9.916h5.57V29.641z
		"/>
	<path fill="currentColor" d="M93.603,18.5c0-0.708,0.579-1.288,1.255-1.288c0.709,0,1.288,0.58,1.288,1.288v20.283
		c0,0.708-0.579,1.287-1.288,1.287c-0.676,0-1.255-0.579-1.255-1.287V18.5z"/>
	<path fill="currentColor" d="M102.744,18.532c0-0.676,0.58-1.256,1.256-1.256h0.354c0.58,0,0.935,0.29,1.288,0.74l13.684,17.45V18.468
		c0-0.676,0.547-1.256,1.256-1.256c0.676,0,1.226,0.58,1.226,1.256v20.349c0,0.678-0.479,1.19-1.158,1.19h-0.129
		c-0.548,0-0.937-0.321-1.317-0.772l-13.977-17.866v17.448c0,0.678-0.547,1.258-1.258,1.258c-0.676,0-1.223-0.58-1.223-1.258V18.532
		H102.744z"/>
	<path fill="currentColor" d="M128.173,18.5c0-0.708,0.58-1.288,1.257-1.288c0.708,0,1.286,0.58,1.286,1.288v12.331l12.848-13.168
		c0.29-0.257,0.579-0.451,0.998-0.451c0.676,0,1.225,0.612,1.225,1.256c0,0.354-0.162,0.644-0.42,0.901l-7.984,7.92l8.564,10.561
		c0.225,0.291,0.354,0.547,0.354,0.936c0,0.676-0.576,1.288-1.284,1.288c-0.481,0-0.808-0.26-1.03-0.58l-8.4-10.465l-4.863,4.861
		v4.896c0,0.708-0.578,1.288-1.286,1.288c-0.677,0-1.257-0.58-1.257-1.288V18.5H128.173z"/>
</g>
<path fill="#FFFFFF" d="M60.498,28.266"/>
<path fill="#D22856" d="M60.462,28.016c-0.002-0.009-5.175-21.365-5.175-21.365C54.926,4.303,52.694,0,46.688,0
	c-0.829,0-1.5,0.671-1.5,1.5s0.671,1.5,1.5,1.5c4.856,0,5.575,3.729,5.639,4.143l4.767,19.701h-2.073
	c-0.742-5.927-5.802-10.531-11.927-10.531s-11.186,4.604-11.927,10.531h-1.82c-0.741-5.927-5.802-10.531-11.927-10.531
	S6.235,20.917,5.493,26.844H3.42L8.187,7.143C8.25,6.729,8.97,3,13.826,3c0.829,0,1.5-0.671,1.5-1.5S14.655,0,13.826,0
	C7.82,0,5.588,4.303,5.227,6.651c0,0-5.173,21.356-5.175,21.365c-0.266,1.109,0.531,1.826,1.426,1.826
	c0.012,0,0.023,0.004,0.036,0.004h3.982c0.741,5.926,5.802,10.53,11.927,10.53s11.185-4.604,11.927-10.53h1.814
	c0.742,5.926,5.802,10.53,11.927,10.53s11.186-4.604,11.927-10.53H59c0.012,0,0.023-0.004,0.036-0.004
	C59.931,29.842,60.728,29.125,60.462,28.016z M26.315,29.844c-0.715,4.272-4.421,7.531-8.896,7.531s-8.18-3.259-8.896-7.531
	c-0.082-0.488-0.135-0.988-0.135-1.5c0-0.512,0.053-1.011,0.135-1.5c0.715-4.271,4.421-7.531,8.896-7.531s8.18,3.26,8.896,7.531
	c0.082,0.489,0.135,0.988,0.135,1.5C26.45,28.855,26.397,29.355,26.315,29.844z M51.99,29.844c-0.716,4.272-4.421,7.531-8.896,7.531
	c-4.475,0-8.181-3.259-8.896-7.531c-0.082-0.488-0.135-0.988-0.135-1.5c0-0.512,0.053-1.011,0.135-1.5
	c0.716-4.271,4.421-7.531,8.896-7.531c4.475,0,8.181,3.26,8.896,7.531c0.082,0.489,0.135,0.988,0.135,1.5
	C52.125,28.855,52.072,29.355,51.99,29.844z"/>
  </g>
</symbol>
<symbol id="page-footer__logotype-big" viewBox="0 0 146.3 40.4">
  <g>
  <g>
	<path fill="currentColor" d="M71.9,18.7c0-0.7,0.6-1.3,1.3-1.3h7.2c5.1,0,8.4,2.7,8.4,7.1v0.1c0,4.9-4.1,7.4-8.9,7.4h-5.5v6.8
		c0,0.7-0.6,1.3-1.3,1.3c-0.7,0-1.3-0.6-1.3-1.3L71.9,18.7L71.9,18.7z M80,29.6c3.7,0,6.2-2,6.2-5v-0.1c0-3.2-2.4-4.9-6.1-4.9h-5.7
		v9.9L80,29.6L80,29.6z"/>
	<path fill="currentColor" d="M93.6,18.5c0-0.7,0.6-1.3,1.3-1.3c0.7,0,1.3,0.6,1.3,1.3v20.3c0,0.7-0.6,1.3-1.3,1.3
		c-0.7,0-1.3-0.6-1.3-1.3V18.5z"/>
	<path fill="currentColor" d="M102.7,18.5c0-0.7,0.6-1.3,1.3-1.3h0.4c0.6,0,0.9,0.3,1.3,0.7l13.7,17.4v-17c0-0.7,0.5-1.3,1.3-1.3
		c0.7,0,1.2,0.6,1.2,1.3v20.3c0,0.7-0.5,1.2-1.2,1.2h-0.1c-0.5,0-0.9-0.3-1.3-0.8l-14-17.9v17.4c0,0.7-0.5,1.3-1.3,1.3
		c-0.7,0-1.2-0.6-1.2-1.3L102.7,18.5L102.7,18.5z"/>
	<path fill="currentColor" d="M128.2,18.5c0-0.7,0.6-1.3,1.3-1.3c0.7,0,1.3,0.6,1.3,1.3v12.3l12.8-13.2c0.3-0.3,0.6-0.5,1-0.5
		c0.7,0,1.2,0.6,1.2,1.3c0,0.4-0.2,0.6-0.4,0.9l-8,7.9l8.6,10.6c0.2,0.3,0.4,0.5,0.4,0.9c0,0.7-0.6,1.3-1.3,1.3
		c-0.5,0-0.8-0.3-1-0.6L135.6,29l-4.9,4.9v4.9c0,0.7-0.6,1.3-1.3,1.3c-0.7,0-1.3-0.6-1.3-1.3L128.2,18.5L128.2,18.5z"/>
</g>
<path fill="#D22856" d="M98.5,9.9c-2,0-3.6-1.6-3.6-3.6c0,2-1.6,3.6-3.6,3.6c2,0,3.6,1.6,3.6,3.6C94.9,11.5,96.5,9.9,98.5,9.9z"/>
<g>
	<path fill="#D22856" d="M43.1,19.3c0.2,0,0.5,0,0.7,0c-0.4-0.7-1.2-1.2-2.1-1.2c-0.9,0-1.6-0.6-1.9-1.4c-0.7,0.2-1.4,0.5-2.1,0.8
		c0.1,0,0.1,0,0.2,0c1.1,0,2,0.9,2,2c0,0.1,0,0.2,0,0.3C40.9,19.5,42,19.3,43.1,19.3z"/>
	<path fill="#D22856" d="M60.5,28c0,0-5.2-21.4-5.2-21.4C54.9,4.3,52.7,0,46.7,0c-0.8,0-1.5,0.7-1.5,1.5S45.9,3,46.7,3
		c4.9,0,5.6,3.7,5.6,4.1l4.8,19.7H55c-0.4-3.6-2.5-6.6-5.3-8.5c-0.9,0.4-1.5,1.3-1.5,2.3c0,0.1,0,0.2,0,0.3c2,1.4,3.4,3.5,3.8,6
		c0.1,0.5,0.1,1,0.1,1.5c0,0.5-0.1,1-0.1,1.5c-0.7,4.3-4.4,7.5-8.9,7.5c-4.5,0-8.2-3.3-8.9-7.5c-0.1-0.5-0.1-1-0.1-1.5
		c0-0.5,0.1-1,0.1-1.5c0.1-0.9,0.4-1.7,0.8-2.5c-1-0.1-1.9-0.9-1.9-2c0-0.2-0.1-0.4-0.2-0.5c-0.9,1.5-1.6,3.1-1.8,5h-1.8
		c-0.7-5.9-5.8-10.5-11.9-10.5S6.2,20.9,5.5,26.8H3.4L8.2,7.1C8.3,6.7,9,3,13.8,3c0.8,0,1.5-0.7,1.5-1.5S14.7,0,13.8,0
		c-6,0-8.2,4.3-8.6,6.7c0,0-5.2,21.4-5.2,21.4c-0.3,1.1,0.5,1.8,1.4,1.8c0,0,0,0,0,0h4c0.1,0.6,0.2,1.2,0.4,1.8
		C5.9,31.6,6,31.5,6,31.3c0-1.1,0.9-2,2-2c0.2,0,0.3,0,0.5,0.1c0-0.3-0.1-0.7-0.1-1c0-0.5,0.1-1,0.1-1.5c0.7-4.3,4.4-7.5,8.9-7.5
		s8.2,3.3,8.9,7.5c0.1,0.5,0.1,1,0.1,1.5c0,0.5-0.1,1-0.1,1.5c-0.7,4.3-4.4,7.5-8.9,7.5c-2,0-3.9-0.7-5.4-1.8
		c-0.4,0.3-0.8,0.5-1.3,0.5c-0.4,0-0.7,0.3-0.7,0.7c0,0.3-0.1,0.6-0.2,0.8c2.1,1.7,4.7,2.7,7.6,2.7c6.1,0,11.2-4.6,11.9-10.5h1.8
		c0.7,5.9,5.8,10.5,11.9,10.5S54.3,35.8,55,29.8h4c0,0,0,0,0,0C59.9,29.8,60.7,29.1,60.5,28z"/>
</g>
<g>
	<g>
		<path fill="currentColor" d="M50.7,16.1c-2.5,0-4.5-2-4.5-4.5c0,2.5-2,4.5-4.5,4.5c2.5,0,4.5,2,4.5,4.5C46.2,18.1,48.2,16.1,50.7,16.1z
			"/>
	</g>
</g>
<g>
	<g>
		<path fill="currentColor" d="M37.9,19.6c-1.5,0-2.7-1.2-2.7-2.7c0,1.5-1.2,2.7-2.7,2.7c1.5,0,2.7,1.2,2.7,2.7
			C35.2,20.9,36.4,19.6,37.9,19.6z"/>
	</g>
</g>
<g>
	<g>
		<path fill="currentColor" d="M10.7,34.1c-1.5,0-2.7-1.2-2.7-2.8c0,1.5-1.2,2.8-2.7,2.8c1.5,0,2.7,1.2,2.7,2.7
			C8,35.3,9.2,34.1,10.7,34.1z"/>
	</g>
</g>
  </g>
</symbol>
<symbol id="copyright__logo" viewBox="0 0 157 203">
  <g>
    <path fill="currentColor" stroke="#231F20" stroke-miterlimit="10" d="M78.805,4.963l-0.807-0.084l-76.69,8.04v140.568L78,199.12l76.692-45.633V12.919
    L78.805,4.963z M144.66,147.783L78,187.446l-66.66-39.663V90.168l66.374,39.506l0.111,7.159l-45.534-27.1l-0.067,6.951
    l45.715,27.475l0.113,7.35l-45.7-27.186l-0.066,6.95L78,158.748l46.152-27.615v-6.982l-0.058,0.034v-2.386v-2.864v-17.456
    l20.566-12.281V147.783z M144.606,81.724L126.37,92.468l-8.419,4.96L77.802,73.544l-0.066,6.951l34.316,20.407l-0.304,0.18
    l-0.739,0.435l-4.876,2.872L77.802,87.535l-0.066,6.951l22.362,13.298l-5.276,3.529l-0.128,0.077l-16.892-9.951l-0.066,6.95
    l11.084,6.527l-11.291,6.779L11.485,82.437l66.139-39.755v0.007L144.606,81.724z M144.66,74.732L77.64,35.224v-0.01l-0.008,0.005
    l-0.008-0.005v0.01L11.34,74.686V21.955l66.661-6.989l66.659,6.989V74.732z"/>
  </g>
</symbol>
<symbol id="upload-photo-crop" viewBox="0 0 48 48">
  <g>
  <path fill="none" d="M0,0h48v48H0V0z"/>
  <path fill="currentColor" d="M34,30h4V14c0-2.21-1.79-4-4-4H18v4h16V30z M14,34V2h-4v8H2v4h8v20c0,2.21,1.79,4,4,4h20v8h4v-8h8v-4H14z"/>
  </g>
</symbol>
<symbol id="upload-photo-fill" viewBox="0 0 48 48">
  <g>
  <path fill="none" d="M0,0h48v48H0V0z"/>
  <path fill="currentColor" d="M33.12,17.88L15.24,0l-2.83,2.83l4.76,4.76L6.88,17.88c-1.17,1.17-1.17,3.07,0,4.24l11,11C18.46,33.71,19.23,34,20,34
	s1.54-0.29,2.12-0.88l11-11C34.29,20.95,34.29,19.05,33.12,17.88z M10.41,20L20,10.42L29.59,20H10.41z M38,23c0,0-4,4.33-4,7
	c0,2.21,1.79,4,4,4s4-1.79,4-4C42,27.33,38,23,38,23z"/>
  <rect fill="currentColor" y="40" width="48" height="3"/>
  </g>
</symbol>
<symbol id="upload-photo-contrast" viewBox="-35.556 -8.093 32.452 32.053">
  <g>
<g>
	<path fill="currentColor" d="M-19.462-3.96c6.595,0,11.96,5.365,11.96,11.96c0,6.595-5.365,11.96-11.96,11.96S-31.422,14.595-31.422,8
		C-31.422,1.405-26.057-3.96-19.462-3.96 M-19.462-7.96c-8.815,0-15.96,7.145-15.96,15.96c0,8.814,7.146,15.96,15.96,15.96
		S-3.502,16.814-3.502,8C-3.502-0.815-10.648-7.96-19.462-7.96L-19.462-7.96z"/>
</g>
<path fill="currentColor" d="M-19.462,16.331c4.706,0,8.519-3.813,8.519-8.52c0-4.705-3.813-8.519-8.519-8.519"/>
  </g>
</symbol>
<symbol id="social-list-facebook" viewBox="0 0 8.672 18.943">
  <g>
  <path fill="#d22856" d="M6.275,3.357c0.8,0,1.599,0,2.397,0c0-1.119,0-2.237,0-3.356c-0.959,0-1.92,0-2.877,0C2.656,0.181,1.54,2.387,1.948,6.116H0
	v3.517h1.958c0,3.103,0,6.208,0,9.312c1.279,0,2.558,0,3.837,0c0-3.104,0-6.208,0-9.312h2.856V6.116H5.786
	C5.765,5.07,5.751,3.709,6.275,3.357z"/>
  </g>
</symbol>
<symbol id="social-list-twitter" viewBox="0 0 17.5 14.663">
  <g>
  		<path fill="#d22856" d="M11.283,0.153c1.736-0.485,3.074,0.263,3.685,1.151c0.694-0.226,1.372-0.47,2.072-0.692
			c-0.004,0.841-0.538,1.478-0.883,1.727C16.861,2.506,17.5,1.86,17.5,1.86c-0.175,0.976-1.035,1.746-1.611,1.977
			C15.65,10.429,12.617,14.792,5.507,14.66c-0.538,0,0.077,0-0.46,0c-0.422,0-4.29-0.449-5.047-1.843
			c2.341,0.192,4.011-0.412,4.835-1.149c-0.989-0.293-2.761-0.465-3.07-2.881c0.362,0.104,0.583,0.223,1.228,0.116
			C1.757,8.067,0.385,7.366,0.461,5.218c0.294,0.32,1.1,0.523,1.381,0.462c-0.725-0.235-2.03-3.281-0.921-4.836
			C2.794,2.654,4.769,4.364,8.29,4.528C8.506,2.288,9.461,0.787,11.283,0.153z"/>
  </g>
</symbol>
<symbol id="social-list-youtube" viewBox="0 0 14.641 13.96">
  <g>
  <path fill="#d22856" d="M1.775,13.78C0.799,14.257,0,13.757,0,12.671V1.29c0-1.088,0.799-1.585,1.775-1.109l12.133,5.932
	c0.975,0.478,0.975,1.258,0,1.736L1.775,13.78z"/>
  </g>
</symbol>
<symbol id="user-photos-like" viewBox="521.9 473.1 12.5 12">
  <g>
  			<path fill="currentColor" d="M530.7,474.5c1.3,0,2.3,1,2.3,2.3c0,0.5-0.2,1-0.5,1.4l-4.3,4.9c-1.8-2-4-4.6-4.3-4.9c0,0,0,0,0,0
				c-0.2-0.3-0.5-0.8-0.5-1.5c0-1.3,1-2.3,2.3-2.3c0.8,0,1.5,0.3,1.9,0.9c0.1,0.2,0.3,0.3,0.6,0.3c0.2,0,0.5-0.1,0.6-0.3
				C529.3,474.9,530,474.5,530.7,474.5z"/>
			<path  fill="#d22856" d="M532.5,478.3c0.3-0.4,0.5-0.9,0.5-1.4c0-1.3-1-2.3-2.3-2.3c-0.7,0-1.4,0.3-1.9,0.9c-0.1,0.2-0.3,0.3-0.6,0.3
				c-0.2,0-0.4-0.1-0.6-0.3c-0.4-0.6-1.1-0.9-1.9-0.9c-1.3,0-2.3,1-2.3,2.3c0,0.7,0.3,1.2,0.5,1.5c0,0,0,0,0,0
				c0.2,0.3,2.5,2.8,4.3,4.9L532.5,478.3z M530.7,473.1c2.1,0,3.8,1.7,3.8,3.8c0,0.9-0.3,1.8-0.9,2.4l-4.9,5.6
				c-0.1,0.2-0.3,0.3-0.5,0.3c-0.2,0-0.4-0.1-0.5-0.3c-3.8-4.3-4.7-5.3-4.9-5.6c-0.5-0.7-0.8-1.5-0.8-2.4c0-2.1,1.7-3.8,3.8-3.8
				c0.9,0,1.8,0.3,2.5,0.9C528.9,473.4,529.8,473.1,530.7,473.1z"/>
  </g>
</symbol>
</svg>
