<?xml version="1.0" encoding="utf-8"?>
<svg xmlns="http://www.w3.org/2000/svg" xmlns:xlink="http://www.w3.org/1999/xlink" width="27" height="26"
	 viewBox="0 0 26.752 26.752" enable-background="new 0 0 26.752 26.752" xml:space="preserve">
<path fill="#f25b26" d="M15.497,13.376L26.311,2.562c0.586-0.585,0.586-1.535,0-2.121c-0.586-0.586-1.535-0.586-2.121,0L13.376,11.255L2.562,0.439
	c-0.586-0.586-1.535-0.586-2.121,0c-0.586,0.585-0.586,1.535,0,2.121l10.814,10.815L0.439,24.19c-0.586,0.586-0.586,1.535,0,2.121
	C0.732,26.604,1.116,26.75,1.5,26.75c0.384,0,0.768-0.146,1.061-0.439l10.815-10.814L24.19,26.311
	c0.293,0.293,0.677,0.44,1.061,0.44c0.384,0,0.768-0.146,1.06-0.44c0.586-0.586,0.586-1.535,0-2.121L15.497,13.376z"/>
</svg>
