<?xml version="1.0" encoding="utf-8"?>
<svg xmlns="http://www.w3.org/2000/svg" xmlns:xlink="http://www.w3.org/1999/xlink" width="32" height="32"
	 viewBox="-35.556 -8.093 32.452 32.053" enable-background="new -35.556 -8.093 32.452 32.053" xml:space="preserve">
<g>
	<path fill="#231F20" d="M-19.462-3.96c6.595,0,11.96,5.365,11.96,11.96c0,6.595-5.365,11.96-11.96,11.96S-31.422,14.595-31.422,8
		C-31.422,1.405-26.057-3.96-19.462-3.96 M-19.462-7.96c-8.815,0-15.96,7.145-15.96,15.96c0,8.814,7.146,15.96,15.96,15.96
		S-3.502,16.814-3.502,8C-3.502-0.815-10.648-7.96-19.462-7.96L-19.462-7.96z"/>
</g>
<path d="M-19.462,16.331c4.706,0,8.519-3.813,8.519-8.52c0-4.705-3.813-8.519-8.519-8.519"/>
</svg>
