<?xml version="1.0" encoding="utf-8"?>
<svg xmlns="http://www.w3.org/2000/svg" xmlns:xlink="http://www.w3.org/1999/xlink" x="0px" y="0px"
	 viewBox="0 0 43 38.5" xml:space="preserve">
<path d="M29.7,16l-16-16l-2.5,2.5l4.3,4.3L6.2,16c-1,1-1,2.8,0,3.8l9.9,9.9c0.5,0.5,1.2,0.8,1.9,0.8s1.4-0.3,1.9-0.8l9.9-9.9
	C30.7,18.8,30.7,17.1,29.7,16z M9.3,17.9l8.6-8.6l8.6,8.6H9.3z M34,20.6c0,0-3.6,3.9-3.6,6.3c0,2,1.6,3.6,3.6,3.6
	c2,0,3.6-1.6,3.6-3.6C37.6,24.5,34,20.6,34,20.6z"/>
<rect x="0" y="35.8" width="43" height="2.7"/>
</svg>
