<?xml version="1.0" encoding="utf-8"?>
<!-- Generator: Adobe Illustrator 22.0.1, SVG Export Plug-In . SVG Version: 6.00 Build 0)  -->
<svg version="1.1" id="Layer_1" xmlns="http://www.w3.org/2000/svg" xmlns:xlink="http://www.w3.org/1999/xlink" x="0px" y="0px"
	 viewBox="521.9 473.1 12.5 12" enable-background="new 521.9 473.1 12.5 12" xml:space="preserve">
<g>
	<g id="XMLID_1_">
  <g>
  			<path fill="currentColor" d="M530.7,474.5c1.3,0,2.3,1,2.3,2.3c0,0.5-0.2,1-0.5,1.4l-4.3,4.9c-1.8-2-4-4.6-4.3-4.9c0,0,0,0,0,0
				c-0.2-0.3-0.5-0.8-0.5-1.5c0-1.3,1-2.3,2.3-2.3c0.8,0,1.5,0.3,1.9,0.9c0.1,0.2,0.3,0.3,0.6,0.3c0.2,0,0.5-0.1,0.6-0.3
				C529.3,474.9,530,474.5,530.7,474.5z"/>
			<path  fill="#d22856" d="M532.5,478.3c0.3-0.4,0.5-0.9,0.5-1.4c0-1.3-1-2.3-2.3-2.3c-0.7,0-1.4,0.3-1.9,0.9c-0.1,0.2-0.3,0.3-0.6,0.3
				c-0.2,0-0.4-0.1-0.6-0.3c-0.4-0.6-1.1-0.9-1.9-0.9c-1.3,0-2.3,1-2.3,2.3c0,0.7,0.3,1.2,0.5,1.5c0,0,0,0,0,0
				c0.2,0.3,2.5,2.8,4.3,4.9L532.5,478.3z M530.7,473.1c2.1,0,3.8,1.7,3.8,3.8c0,0.9-0.3,1.8-0.9,2.4l-4.9,5.6
				c-0.1,0.2-0.3,0.3-0.5,0.3c-0.2,0-0.4-0.1-0.5-0.3c-3.8-4.3-4.7-5.3-4.9-5.6c-0.5-0.7-0.8-1.5-0.8-2.4c0-2.1,1.7-3.8,3.8-3.8
				c0.9,0,1.8,0.3,2.5,0.9C528.9,473.4,529.8,473.1,530.7,473.1z"/>
  </g>
		<g>
		</g>
	</g>
</g>
</svg>
