<svg xmlns="http://www.w3.org/2000/svg" width="27" viewBox="0 0 157 203"><path fill="currentColor" stroke="#231F20" stroke-miterlimit="10" d="M78.805 4.963l-.807-.084-76.69 8.04v140.568L78 199.12l76.692-45.633V12.919L78.805 4.963zm65.855 142.82L78 187.446l-66.66-39.663V90.168l66.374 39.506.111 7.159-45.534-27.1-.067 6.951 45.715 27.475.113 7.35-45.7-27.186-.066 6.95L78 158.748l46.152-27.615v-6.982l-.058.034v-22.706l20.566-12.281v58.585zm-.054-66.059L126.37 92.468l-8.419 4.96-40.149-23.884-.066 6.951 34.316 20.407-.304.18-.739.435-4.876 2.872-28.331-16.854-.066 6.951 22.362 13.298-5.276 3.529-.128.077-16.892-9.951-.066 6.95 11.084 6.527-11.291 6.779-66.044-39.258 66.139-39.755v.007l66.982 39.035zm.054-6.992L77.64 35.224v-.01l-.008.005-.008-.005v.01L11.34 74.686V21.955l66.661-6.989 66.659 6.989v52.777z"/></svg>