<svg xmlns="http://www.w3.org/2000/svg" width="20" height="19" viewBox="0 0 19.697 19.695" fill="#d22856"><path d="M9.848 0C6.34 0 2.823.628 1.546 1.878.488 2.918.134 4.752.017 5.913c0 0-.017.114-.017.165a.82.82 0 00.819.819c.054 0 2.028-.161 3.218-.259.029-.004.059-.008.086-.017a.82.82 0 00.801-.818l.003-1.617c0-.5.407-.901.907-.901h8.027c.499 0 .907.401.907.901l.003 1.617a.82.82 0 00.802.82.474.474 0 00.085.017c1.19.098 3.164.259 3.217.259a.821.821 0 00.822-.819c0-.051-.017-.165-.017-.165-.118-1.161-.473-2.995-1.53-4.035C16.873.628 13.356 0 9.848 0zm0 10.67a1.64 1.64 0 100 3.282 1.641 1.641 0 100-3.282zM8.616 6.975V5.951a1.025 1.025 0 10-2.049 0v1.023L1.03 12.888a2.055 2.055 0 00-.619 1.47v1.646c0 .907.734 1.643 1.641 1.643h.411v1.023a1.025 1.025 0 002.05 0v-1.023h10.669v1.023a1.025 1.025 0 102.05 0v-1.023h.411c.904 0 1.64-.734 1.64-1.643v-1.646c0-.575-.236-1.094-.618-1.47L13.13 6.975V5.951a1.025 1.025 0 10-2.051 0v1.023H8.616zm1.232 2.053a3.28 3.28 0 013.281 3.282 3.28 3.28 0 01-3.281 3.282 3.28 3.28 0 01-3.281-3.282 3.28 3.28 0 013.281-3.282z"/></svg>