<svg xmlns="http://www.w3.org/2000/svg" width="18" height="13" viewBox="0 0 17.988 13.965" fill="#d22856"><path d="M14.914 1.814C16.111.816 15.816 0 14.257 0H3.731c-1.56 0-1.854.816-.657 1.814l3.742 3.118c1.197.998 3.158.998 4.355 0l3.743-3.118z"/><path d="M11.913 7.044a187.346 187.346 0 01-2.218 1.835l-.021.014a.985.985 0 01-.234.136c-.033.014-.066.034-.1.048-.11.034-.223.058-.335.058l-.01.002h-.002l-.01-.002a1.208 1.208 0 01-.335-.058c-.034-.014-.068-.034-.1-.048a1.032 1.032 0 01-.235-.136l-.02-.014c-.022-.011-1.02-.837-2.218-1.835L2.178 3.796C.979 2.798 0 3.257 0 4.816v6.315a2.842 2.842 0 002.835 2.834h12.318a2.842 2.842 0 002.835-2.834V4.816c0-1.559-.979-2.018-2.178-1.02l-3.897 3.248z"/></svg>