<svg xmlns="http://www.w3.org/2000/svg" xmlns:xlink="http://www.w3.org/1999/xlink"><symbol id="copyright__logo" viewBox="0 0 157 203"><path fill="currentColor" stroke="#231F20" stroke-miterlimit="10" d="M78.805 4.963l-.807-.084-76.69 8.04v140.568L78 199.12l76.692-45.633V12.919L78.805 4.963zm65.855 142.82L78 187.446l-66.66-39.663V90.168l66.374 39.506.111 7.159-45.534-27.1-.067 6.951 45.715 27.475.113 7.35-45.7-27.186-.066 6.95L78 158.748l46.152-27.615v-6.982l-.058.034v-22.706l20.566-12.281v58.585zm-.054-66.059L126.37 92.468l-8.419 4.96-40.149-23.884-.066 6.951 34.316 20.407-.304.18-.739.435-4.876 2.872-28.331-16.854-.066 6.951 22.362 13.298-5.276 3.529-.128.077-16.892-9.951-.066 6.95 11.084 6.527-11.291 6.779-66.044-39.258 66.139-39.755v.007l66.982 39.035zm.054-6.992L77.64 35.224v-.01l-.008.005-.008-.005v.01L11.34 74.686V21.955l66.661-6.989 66.659 6.989v52.777z"/></symbol><symbol id="input-mail" viewBox="0 0 17.988 13.965"><path d="M14.914 1.814C16.111.816 15.816 0 14.257 0H3.731c-1.56 0-1.854.816-.657 1.814l3.742 3.118c1.197.998 3.158.998 4.355 0l3.743-3.118z"/><path d="M11.913 7.044a187.346 187.346 0 01-2.218 1.835l-.021.014a.985.985 0 01-.234.136c-.033.014-.066.034-.1.048-.11.034-.223.058-.335.058l-.01.002h-.002l-.01-.002a1.208 1.208 0 01-.335-.058c-.034-.014-.068-.034-.1-.048a1.032 1.032 0 01-.235-.136l-.02-.014c-.022-.011-1.02-.837-2.218-1.835L2.178 3.796C.979 2.798 0 3.257 0 4.816v6.315a2.842 2.842 0 002.835 2.834h12.318a2.842 2.842 0 002.835-2.834V4.816c0-1.559-.979-2.018-2.178-1.02l-3.897 3.248z"/></symbol><symbol id="input-phone" viewBox="0 0 19.697 19.695"><path d="M9.848 0C6.34 0 2.823.628 1.546 1.878.488 2.918.134 4.752.017 5.913c0 0-.017.114-.017.165a.82.82 0 00.819.819c.054 0 2.028-.161 3.218-.259.029-.004.059-.008.086-.017a.82.82 0 00.801-.818l.003-1.617c0-.5.407-.901.907-.901h8.027c.499 0 .907.401.907.901l.003 1.617a.82.82 0 00.802.82.474.474 0 00.085.017c1.19.098 3.164.259 3.217.259a.821.821 0 00.822-.819c0-.051-.017-.165-.017-.165-.118-1.161-.473-2.995-1.53-4.035C16.873.628 13.356 0 9.848 0zm0 10.67a1.64 1.64 0 100 3.282 1.641 1.641 0 100-3.282zM8.616 6.975V5.951a1.025 1.025 0 10-2.049 0v1.023L1.03 12.888a2.055 2.055 0 00-.619 1.47v1.646c0 .907.734 1.643 1.641 1.643h.411v1.023a1.025 1.025 0 002.05 0v-1.023h10.669v1.023a1.025 1.025 0 102.05 0v-1.023h.411c.904 0 1.64-.734 1.64-1.643v-1.646c0-.575-.236-1.094-.618-1.47L13.13 6.975V5.951a1.025 1.025 0 10-2.051 0v1.023H8.616zm1.232 2.053a3.28 3.28 0 013.281 3.282 3.28 3.28 0 01-3.281 3.282 3.28 3.28 0 01-3.281-3.282 3.28 3.28 0 013.281-3.282z"/></symbol><symbol id="main-nav__logo-desktop" viewBox="0 0 146.3 40.375"><path d="M71.874 18.661c0-.708.58-1.288 1.256-1.288h7.18c5.087 0 8.436 2.704 8.436 7.146v.063c0 4.86-4.057 7.373-8.854 7.373h-5.475v6.825c0 .708-.58 1.287-1.289 1.287-.676 0-1.256-.58-1.256-1.287l.002-20.119zm8.114 10.98c3.734 0 6.182-1.996 6.182-4.959v-.063c0-3.221-2.414-4.894-6.053-4.894h-5.699v9.917h5.57v-.001zM93.603 18.5c0-.708.579-1.288 1.255-1.288.709 0 1.288.58 1.288 1.288v20.283a1.29 1.29 0 01-1.288 1.287c-.676 0-1.255-.579-1.255-1.287V18.5zm9.141.032c0-.676.58-1.256 1.256-1.256h.354c.58 0 .935.29 1.288.74l13.684 17.45V18.468c0-.676.547-1.256 1.256-1.256.676 0 1.225.58 1.225 1.256v20.349c0 .677-.48 1.19-1.158 1.19h-.129c-.548 0-.936-.321-1.318-.772l-13.976-17.867v17.449c0 .677-.547 1.257-1.257 1.257-.676 0-1.223-.58-1.223-1.257V18.532h-.002zm25.429-.032c0-.708.58-1.288 1.257-1.288.708 0 1.286.58 1.286 1.288v12.331l12.848-13.168c.29-.257.579-.451.998-.451.676 0 1.225.612 1.225 1.256 0 .354-.162.644-.42.901l-7.984 7.92 8.564 10.561c.225.291.354.547.354.936 0 .676-.577 1.288-1.285 1.288-.482 0-.807-.259-1.03-.58l-8.401-10.464-4.863 4.861v4.895a1.29 1.29 0 01-1.286 1.288c-.677 0-1.257-.58-1.257-1.288V18.5h-.006z" fill="#FFF"/><path fill="#D22856" d="M98.498 9.875a3.623 3.623 0 01-3.623-3.624 3.625 3.625 0 01-3.625 3.624 3.625 3.625 0 013.625 3.624 3.622 3.622 0 013.623-3.624z"/><g fill="#FFF"><path d="M43.094 19.313c.246 0 .489.014.73.033a2.491 2.491 0 00-2.136-1.221 1.994 1.994 0 01-1.884-1.354c-.727.208-1.425.482-2.089.816.062.017.122.038.188.038a2 2 0 012 2c0 .096-.015.188-.028.281 1-.382 2.084-.593 3.219-.593z"/><path d="M60.462 28.016L55.287 6.651C54.926 4.303 52.694 0 46.688 0a1.5 1.5 0 100 3c4.856 0 5.575 3.729 5.639 4.143l4.767 19.701h-2.073c-.445-3.557-2.453-6.628-5.305-8.522a2.503 2.503 0 00-1.529 2.303c0 .088-.015.171-.026.256a9.034 9.034 0 013.829 5.965c.082.488.135.987.135 1.5 0 .512-.053 1.012-.135 1.5-.716 4.271-4.421 7.53-8.896 7.53-4.475 0-8.181-3.259-8.896-7.53a9.035 9.035 0 01-.135-1.5c0-.513.053-1.012.135-1.5a8.945 8.945 0 01.808-2.484 1.994 1.994 0 01-1.852-1.984.735.735 0 00-.192-.488 11.95 11.95 0 00-1.795 4.957h-1.82c-.741-5.927-5.802-10.531-11.927-10.531S6.235 20.917 5.493 26.844H3.42L8.187 7.143C8.25 6.729 8.97 3 13.826 3a1.5 1.5 0 100-3C7.82 0 5.588 4.303 5.227 6.651L.052 28.016c-.266 1.109.531 1.826 1.426 1.826.012 0 .023.004.036.004h3.982c.079.629.215 1.237.387 1.831a.73.73 0 00.102-.354 2 2 0 012-2c.166 0 .324.024.478.063a8.337 8.337 0 01-.074-1.042c0-.512.053-1.011.135-1.5.715-4.271 4.421-7.531 8.896-7.531s8.18 3.26 8.896 7.531c.082.489.135.988.135 1.5s-.053 1.012-.135 1.5c-.715 4.272-4.421 7.531-8.896 7.531a8.959 8.959 0 01-5.386-1.794c-.35.302-.8.491-1.299.491a.75.75 0 00-.749.748c0 .289-.065.563-.176.812a11.94 11.94 0 007.614 2.743c6.125 0 11.185-4.604 11.927-10.529h1.814c.742 5.926 5.802 10.529 11.927 10.529s11.186-4.604 11.927-10.529H59c.012 0 .023-.005.036-.005.895.001 1.692-.716 1.426-1.825z"/></g><path fill="#D22856" d="M50.686 16.125a4.499 4.499 0 01-4.499-4.499 4.499 4.499 0 01-4.499 4.499 4.499 4.499 0 014.499 4.499 4.498 4.498 0 014.499-4.499zm-12.782 3.501a2.748 2.748 0 01-2.749-2.749 2.748 2.748 0 01-2.749 2.749 2.747 2.747 0 012.749 2.749 2.748 2.748 0 012.749-2.749zm-27.17 14.446a2.748 2.748 0 01-2.749-2.75c0 1.52-1.23 2.75-2.749 2.75a2.747 2.747 0 012.749 2.748 2.748 2.748 0 012.749-2.748z"/></symbol><symbol id="os-list__android-mobile"><path fill="#A4C639" d="M34.144 14.009H7.945c-.009.11-.018.22-.018.333v18.755c0 1.926 1.457 3.49 3.316 3.627v7.435a2.884 2.884 0 105.77 0v-7.421h8.058v7.421a2.884 2.884 0 002.885 2.885 2.884 2.884 0 002.886-2.885v-7.435c1.858-.137 3.315-1.701 3.315-3.627V14.342c0-.113-.004-.223-.013-.333zm-31.258 1.67a2.886 2.886 0 012.886 2.885v12.378a2.885 2.885 0 11-5.772 0V18.564a2.885 2.885 0 012.886-2.885zm36.312 0a2.885 2.885 0 012.886 2.885v12.378a2.885 2.885 0 01-2.886 2.886 2.884 2.884 0 01-2.885-2.886V18.564a2.884 2.884 0 012.885-2.885zM8.03 11.967h26.026c-.039-2.783-1.234-5.322-3.187-7.275L33.315.457a.304.304 0 00-.527-.304L30.416 4.26c-2.052-1.853-6.249-3.4-9.374-3.4-3.016 0-7.322 1.547-9.374 3.4L9.296.152a.304.304 0 00-.526.304l2.445 4.235c-1.95 1.954-3.147 4.493-3.185 7.276zm17.293-5.163c-.002-.805.664-1.46 1.488-1.462.826-.002 1.494.648 1.498 1.454v.008c.002.805-.664 1.46-1.49 1.462-.823.002-1.493-.649-1.496-1.454v-.008zm-11.143 0c-.001-.805.665-1.46 1.489-1.462.824-.002 1.494.648 1.497 1.454v.008c.002.805-.664 1.46-1.488 1.462-.825.002-1.495-.649-1.498-1.454v-.008z"/></symbol><symbol id="os-list__apple-mobile"><path fill="#FFF" d="M38.593 30.15c.08 8.59 7.535 11.447 7.617 11.483-.062.203-1.19 4.074-3.928 8.072-2.365 3.457-4.82 6.901-8.688 6.974-3.799.069-5.021-2.253-9.365-2.253s-5.702 2.182-9.298 2.322c-3.733.143-6.576-3.738-8.961-7.184-4.875-7.046-8.598-19.91-3.597-28.593 2.484-4.313 6.925-7.043 11.743-7.114 3.666-.069 7.126 2.466 9.366 2.466 2.241 0 6.444-3.049 10.865-2.601 1.851.077 7.044.747 10.38 5.629-.269.168-6.196 3.62-6.134 10.799m-7.14-21.088c1.982-2.4 3.316-5.739 2.952-9.062-2.856.115-6.312 1.904-8.36 4.302-1.836 2.123-3.444 5.522-3.01 8.778 3.183.246 6.435-1.619 8.418-4.018"/></symbol><symbol id="os-list__wp-mobile"><path d="M20.9 20H0V0h20.9z" fill="#f05423"/><path d="M43.9 20H23V0h20.9z" fill="#84c441"/><path d="M20.9 42H0V22h20.9z" fill="#2dabe2"/><path d="M43.9 42H23V22h20.9z" fill="#f9bc15"/></symbol><symbol id="page-footer__logotype-big" viewBox="0 0 146.3 40.4"><path d="M71.9 18.7c0-.7.6-1.3 1.3-1.3h7.2c5.1 0 8.4 2.7 8.4 7.1v.1c0 4.9-4.1 7.4-8.9 7.4h-5.5v6.8c0 .7-.6 1.3-1.3 1.3-.7 0-1.3-.6-1.3-1.3l.1-20.1zM80 29.6c3.7 0 6.2-2 6.2-5v-.1c0-3.2-2.4-4.9-6.1-4.9h-5.7v9.9l5.6.1zm13.6-11.1c0-.7.6-1.3 1.3-1.3.7 0 1.3.6 1.3 1.3v20.3c0 .7-.6 1.3-1.3 1.3-.7 0-1.3-.6-1.3-1.3V18.5zm9.1 0c0-.7.6-1.3 1.3-1.3h.4c.6 0 .9.3 1.3.7l13.7 17.4v-17c0-.7.5-1.3 1.3-1.3.7 0 1.2.6 1.2 1.3v20.3c0 .7-.5 1.2-1.2 1.2h-.1c-.5 0-.9-.3-1.3-.8l-14-17.9v17.4c0 .7-.5 1.3-1.3 1.3-.7 0-1.2-.6-1.2-1.3l-.1-20zm25.5 0c0-.7.6-1.3 1.3-1.3.7 0 1.3.6 1.3 1.3v12.3l12.8-13.2c.3-.3.6-.5 1-.5.7 0 1.2.6 1.2 1.3 0 .4-.2.6-.4.9l-8 7.9 8.6 10.6c.2.3.4.5.4.9 0 .7-.6 1.3-1.3 1.3-.5 0-.8-.3-1-.6L135.6 29l-4.9 4.9v4.9c0 .7-.6 1.3-1.3 1.3-.7 0-1.3-.6-1.3-1.3l.1-20.3z" fill="currentColor"/><path fill="#D22856" d="M98.5 9.9c-2 0-3.6-1.6-3.6-3.6 0 2-1.6 3.6-3.6 3.6 2 0 3.6 1.6 3.6 3.6 0-2 1.6-3.6 3.6-3.6z"/><g fill="#D22856"><path d="M43.1 19.3h.7c-.4-.7-1.2-1.2-2.1-1.2-.9 0-1.6-.6-1.9-1.4-.7.2-1.4.5-2.1.8h.2c1.1 0 2 .9 2 2v.3c1-.3 2.1-.5 3.2-.5z"/><path d="M60.5 28L55.3 6.6C54.9 4.3 52.7 0 46.7 0c-.8 0-1.5.7-1.5 1.5S45.9 3 46.7 3c4.9 0 5.6 3.7 5.6 4.1l4.8 19.7H55c-.4-3.6-2.5-6.6-5.3-8.5-.9.4-1.5 1.3-1.5 2.3v.3c2 1.4 3.4 3.5 3.8 6 .1.5.1 1 .1 1.5s-.1 1-.1 1.5c-.7 4.3-4.4 7.5-8.9 7.5s-8.2-3.3-8.9-7.5c-.1-.5-.1-1-.1-1.5s.1-1 .1-1.5c.1-.9.4-1.7.8-2.5-1-.1-1.9-.9-1.9-2 0-.2-.1-.4-.2-.5-.9 1.5-1.6 3.1-1.8 5h-1.8c-.7-5.9-5.8-10.5-11.9-10.5S6.2 20.9 5.5 26.8H3.4L8.2 7.1C8.3 6.7 9 3 13.8 3c.8 0 1.5-.7 1.5-1.5S14.7 0 13.8 0c-6 0-8.2 4.3-8.6 6.7L0 28.1c-.3 1.1.5 1.8 1.4 1.8h4c.1.6.2 1.2.4 1.8.1-.1.2-.2.2-.4 0-1.1.9-2 2-2 .2 0 .3 0 .5.1 0-.3-.1-.7-.1-1 0-.5.1-1 .1-1.5.7-4.3 4.4-7.5 8.9-7.5s8.2 3.3 8.9 7.5c.1.5.1 1 .1 1.5s-.1 1-.1 1.5c-.7 4.3-4.4 7.5-8.9 7.5-2 0-3.9-.7-5.4-1.8-.4.3-.8.5-1.3.5-.4 0-.7.3-.7.7 0 .3-.1.6-.2.8 2.1 1.7 4.7 2.7 7.6 2.7 6.1 0 11.2-4.6 11.9-10.5h1.8c.7 5.9 5.8 10.5 11.9 10.5s11.3-4.5 12-10.5h4c.9 0 1.7-.7 1.5-1.8z"/></g><path fill="currentColor" d="M50.7 16.1c-2.5 0-4.5-2-4.5-4.5 0 2.5-2 4.5-4.5 4.5 2.5 0 4.5 2 4.5 4.5 0-2.5 2-4.5 4.5-4.5zm-12.8 3.5c-1.5 0-2.7-1.2-2.7-2.7 0 1.5-1.2 2.7-2.7 2.7 1.5 0 2.7 1.2 2.7 2.7 0-1.4 1.2-2.7 2.7-2.7zM10.7 34.1c-1.5 0-2.7-1.2-2.7-2.8 0 1.5-1.2 2.8-2.7 2.8 1.5 0 2.7 1.2 2.7 2.7 0-1.5 1.2-2.7 2.7-2.7z"/></symbol><symbol id="page-footer__logotype-small" viewBox="0 0 146.3 40.375">
<g>
	<path fill="currentColor" d="M71.874,18.661c0-0.708,0.58-1.288,1.256-1.288h7.18c5.087,0,8.436,2.704,8.436,7.146v0.063
		c0,4.859-4.057,7.373-8.854,7.373h-5.475v6.824c0,0.709-0.58,1.287-1.29,1.287c-0.676,0-1.256-0.58-1.256-1.287L71.874,18.661
		L71.874,18.661z M79.988,29.641c3.734,0,6.182-1.996,6.182-4.959V24.62c0-3.222-2.414-4.894-6.053-4.894h-5.699v9.916h5.57V29.641z
		"/>
	<path fill="currentColor" d="M93.603,18.5c0-0.708,0.579-1.288,1.255-1.288c0.709,0,1.288,0.58,1.288,1.288v20.283
		c0,0.708-0.579,1.287-1.288,1.287c-0.676,0-1.255-0.579-1.255-1.287V18.5z"/>
	<path fill="currentColor" d="M102.744,18.532c0-0.676,0.58-1.256,1.256-1.256h0.354c0.58,0,0.935,0.29,1.288,0.74l13.684,17.45V18.468
		c0-0.676,0.547-1.256,1.256-1.256c0.676,0,1.226,0.58,1.226,1.256v20.349c0,0.678-0.479,1.19-1.158,1.19h-0.129
		c-0.548,0-0.937-0.321-1.317-0.772l-13.977-17.866v17.448c0,0.678-0.547,1.258-1.258,1.258c-0.676,0-1.223-0.58-1.223-1.258V18.532
		H102.744z"/>
	<path fill="currentColor" d="M128.173,18.5c0-0.708,0.58-1.288,1.257-1.288c0.708,0,1.286,0.58,1.286,1.288v12.331l12.848-13.168
		c0.29-0.257,0.579-0.451,0.998-0.451c0.676,0,1.225,0.612,1.225,1.256c0,0.354-0.162,0.644-0.42,0.901l-7.984,7.92l8.564,10.561
		c0.225,0.291,0.354,0.547,0.354,0.936c0,0.676-0.576,1.288-1.284,1.288c-0.481,0-0.808-0.26-1.03-0.58l-8.4-10.465l-4.863,4.861
		v4.896c0,0.708-0.578,1.288-1.286,1.288c-0.677,0-1.257-0.58-1.257-1.288V18.5H128.173z"/>
</g>
<path fill="#FFFFFF" d="M60.498,28.266"/>
<path fill="#D22856" d="M60.462,28.016c-0.002-0.009-5.175-21.365-5.175-21.365C54.926,4.303,52.694,0,46.688,0
	c-0.829,0-1.5,0.671-1.5,1.5s0.671,1.5,1.5,1.5c4.856,0,5.575,3.729,5.639,4.143l4.767,19.701h-2.073
	c-0.742-5.927-5.802-10.531-11.927-10.531s-11.186,4.604-11.927,10.531h-1.82c-0.741-5.927-5.802-10.531-11.927-10.531
	S6.235,20.917,5.493,26.844H3.42L8.187,7.143C8.25,6.729,8.97,3,13.826,3c0.829,0,1.5-0.671,1.5-1.5S14.655,0,13.826,0
	C7.82,0,5.588,4.303,5.227,6.651c0,0-5.173,21.356-5.175,21.365c-0.266,1.109,0.531,1.826,1.426,1.826
	c0.012,0,0.023,0.004,0.036,0.004h3.982c0.741,5.926,5.802,10.53,11.927,10.53s11.185-4.604,11.927-10.53h1.814
	c0.742,5.926,5.802,10.53,11.927,10.53s11.186-4.604,11.927-10.53H59c0.012,0,0.023-0.004,0.036-0.004
	C59.931,29.842,60.728,29.125,60.462,28.016z M26.315,29.844c-0.715,4.272-4.421,7.531-8.896,7.531s-8.18-3.259-8.896-7.531
	c-0.082-0.488-0.135-0.988-0.135-1.5c0-0.512,0.053-1.011,0.135-1.5c0.715-4.271,4.421-7.531,8.896-7.531s8.18,3.26,8.896,7.531
	c0.082,0.489,0.135,0.988,0.135,1.5C26.45,28.855,26.397,29.355,26.315,29.844z M51.99,29.844c-0.716,4.272-4.421,7.531-8.896,7.531
	c-4.475,0-8.181-3.259-8.896-7.531c-0.082-0.488-0.135-0.988-0.135-1.5c0-0.512,0.053-1.011,0.135-1.5
	c0.716-4.271,4.421-7.531,8.896-7.531c4.475,0,8.181,3.26,8.896,7.531c0.082,0.489,0.135,0.988,0.135,1.5
	C52.125,28.855,52.072,29.355,51.99,29.844z"/>
</symbol><symbol id="page-header__logotype-desktop" viewBox="0 0 146.3 40.375"><path d="M71.874 18.661c0-.708.58-1.288 1.256-1.288h7.18c5.087 0 8.436 2.704 8.436 7.146v.063c0 4.86-4.057 7.373-8.854 7.373h-5.475v6.825c0 .708-.58 1.287-1.289 1.287-.676 0-1.256-.58-1.256-1.287l.002-20.119zm8.114 10.98c3.734 0 6.182-1.996 6.182-4.959v-.063c0-3.221-2.414-4.894-6.053-4.894h-5.699v9.917h5.57v-.001zM93.603 18.5c0-.708.579-1.288 1.255-1.288.709 0 1.288.58 1.288 1.288v20.283a1.29 1.29 0 01-1.288 1.287c-.676 0-1.255-.579-1.255-1.287V18.5zm9.141.032c0-.676.58-1.256 1.256-1.256h.354c.58 0 .935.29 1.288.74l13.684 17.45V18.468c0-.676.547-1.256 1.256-1.256.676 0 1.225.58 1.225 1.256v20.349c0 .677-.48 1.19-1.158 1.19h-.129c-.548 0-.936-.321-1.318-.772l-13.976-17.867v17.449c0 .677-.547 1.257-1.257 1.257-.676 0-1.223-.58-1.223-1.257V18.532h-.002zm25.429-.032c0-.708.58-1.288 1.257-1.288.708 0 1.286.58 1.286 1.288v12.331l12.848-13.168c.29-.257.579-.451.998-.451.676 0 1.225.612 1.225 1.256 0 .354-.162.644-.42.901l-7.984 7.92 8.564 10.561c.225.291.354.547.354.936 0 .676-.577 1.288-1.285 1.288-.482 0-.807-.259-1.03-.58l-8.401-10.464-4.863 4.861v4.895a1.29 1.29 0 01-1.286 1.288c-.677 0-1.257-.58-1.257-1.288V18.5h-.006z" fill="#FFF"/><path fill="#D22856" d="M98.498 9.875a3.623 3.623 0 01-3.623-3.624 3.625 3.625 0 01-3.625 3.624 3.625 3.625 0 013.625 3.624 3.622 3.622 0 013.623-3.624z"/><g fill="#FFF"><path d="M43.094 19.313c.246 0 .489.014.73.033a2.491 2.491 0 00-2.136-1.221 1.994 1.994 0 01-1.884-1.354c-.727.208-1.425.482-2.089.816.062.017.122.038.188.038a2 2 0 012 2c0 .096-.015.188-.028.281 1-.382 2.084-.593 3.219-.593z"/><path d="M60.462 28.016L55.287 6.651C54.926 4.303 52.694 0 46.688 0a1.5 1.5 0 100 3c4.856 0 5.575 3.729 5.639 4.143l4.767 19.701h-2.073c-.445-3.557-2.453-6.628-5.305-8.522a2.503 2.503 0 00-1.529 2.303c0 .088-.015.171-.026.256a9.034 9.034 0 013.829 5.965c.082.488.135.987.135 1.5 0 .512-.053 1.012-.135 1.5-.716 4.271-4.421 7.53-8.896 7.53-4.475 0-8.181-3.259-8.896-7.53a9.035 9.035 0 01-.135-1.5c0-.513.053-1.012.135-1.5a8.945 8.945 0 01.808-2.484 1.994 1.994 0 01-1.852-1.984.735.735 0 00-.192-.488 11.95 11.95 0 00-1.795 4.957h-1.82c-.741-5.927-5.802-10.531-11.927-10.531S6.235 20.917 5.493 26.844H3.42L8.187 7.143C8.25 6.729 8.97 3 13.826 3a1.5 1.5 0 100-3C7.82 0 5.588 4.303 5.227 6.651L.052 28.016c-.266 1.109.531 1.826 1.426 1.826.012 0 .023.004.036.004h3.982c.079.629.215 1.237.387 1.831a.73.73 0 00.102-.354 2 2 0 012-2c.166 0 .324.024.478.063a8.337 8.337 0 01-.074-1.042c0-.512.053-1.011.135-1.5.715-4.271 4.421-7.531 8.896-7.531s8.18 3.26 8.896 7.531c.082.489.135.988.135 1.5s-.053 1.012-.135 1.5c-.715 4.272-4.421 7.531-8.896 7.531a8.959 8.959 0 01-5.386-1.794c-.35.302-.8.491-1.299.491a.75.75 0 00-.749.748c0 .289-.065.563-.176.812a11.94 11.94 0 007.614 2.743c6.125 0 11.185-4.604 11.927-10.529h1.814c.742 5.926 5.802 10.529 11.927 10.529s11.186-4.604 11.927-10.529H59c.012 0 .023-.005.036-.005.895.001 1.692-.716 1.426-1.825z"/></g><path fill="#D22856" d="M50.686 16.125a4.499 4.499 0 01-4.499-4.499 4.499 4.499 0 01-4.499 4.499 4.499 4.499 0 014.499 4.499 4.498 4.498 0 014.499-4.499zm-12.782 3.501a2.748 2.748 0 01-2.749-2.749 2.748 2.748 0 01-2.749 2.749 2.747 2.747 0 012.749 2.749 2.748 2.748 0 012.749-2.749zm-27.17 14.446a2.748 2.748 0 01-2.749-2.75c0 1.52-1.23 2.75-2.749 2.75a2.747 2.747 0 012.749 2.748 2.748 2.748 0 012.749-2.748z"/></symbol><symbol id="page-header__logotype-mobile" viewBox="0 0 74.426 22.859"><path d="M0 1.449C0 .741.58.161 1.256.161h7.18c5.087 0 8.436 2.704 8.436 7.147v.063c0 4.861-4.057 7.373-8.854 7.373H2.544v6.825c0 .708-.58 1.288-1.288 1.288C.58 22.859 0 22.279 0 21.571V1.449zm8.114 10.979c3.734 0 6.182-1.996 6.182-4.958v-.065c0-3.22-2.415-4.894-6.054-4.894H2.544v9.918h5.57zm13.615-11.14C21.729.58 22.308 0 22.983 0c.709 0 1.288.58 1.288 1.288v20.283c0 .708-.579 1.288-1.288 1.288-.676 0-1.255-.58-1.255-1.288l.001-20.283zm9.141.032c0-.676.579-1.256 1.256-1.256h.354c.58 0 .934.29 1.288.74l13.684 17.449V1.256A1.256 1.256 0 0148.707 0c.676 0 1.223.58 1.223 1.256v20.349c0 .676-.481 1.19-1.158 1.19h-.129c-.547 0-.934-.321-1.319-.771L33.349 4.153v17.45c0 .676-.547 1.256-1.255 1.256-.677 0-1.224-.58-1.224-1.256V1.32zm25.43-.032C56.3.58 56.879 0 57.557 0c.707 0 1.286.58 1.286 1.288v12.331L71.689.451c.289-.258.58-.451.998-.451.677 0 1.225.612 1.225 1.256 0 .354-.161.644-.419.901l-7.984 7.92 8.564 10.561c.225.29.354.547.354.934 0 .676-.579 1.288-1.286 1.288-.483 0-.807-.258-1.031-.58l-8.402-10.463-4.861 4.861v4.894c0 .708-.58 1.288-1.287 1.288-.678 0-1.257-.58-1.257-1.288V1.288H56.3z" fill="#FFF"/></symbol><symbol id="page-header__logotype-tablet" viewBox="0 0 146.3 40.375"><path d="M71.874 18.661c0-.708.58-1.288 1.256-1.288h7.18c5.087 0 8.436 2.704 8.436 7.146v.063c0 4.86-4.057 7.373-8.854 7.373h-5.475v6.825c0 .708-.58 1.287-1.289 1.287-.676 0-1.256-.58-1.256-1.287l.002-20.119zm8.114 10.98c3.734 0 6.182-1.996 6.182-4.959v-.063c0-3.221-2.414-4.894-6.053-4.894h-5.699v9.917h5.57v-.001zM93.603 18.5c0-.708.579-1.288 1.255-1.288.709 0 1.288.58 1.288 1.288v20.283a1.29 1.29 0 01-1.288 1.287c-.676 0-1.255-.579-1.255-1.287V18.5zm9.141.032c0-.676.58-1.256 1.256-1.256h.354c.58 0 .935.29 1.288.74l13.684 17.45V18.468c0-.676.547-1.256 1.256-1.256.676 0 1.225.58 1.225 1.256v20.349c0 .677-.48 1.19-1.158 1.19h-.129c-.548 0-.936-.321-1.318-.772l-13.976-17.867v17.449c0 .677-.547 1.257-1.257 1.257-.676 0-1.223-.58-1.223-1.257V18.532h-.002zm25.429-.032c0-.708.58-1.288 1.257-1.288.708 0 1.286.58 1.286 1.288v12.331l12.848-13.168c.29-.257.579-.451.998-.451.676 0 1.225.612 1.225 1.256 0 .354-.162.644-.42.901l-7.984 7.92 8.564 10.561c.225.291.354.547.354.936 0 .676-.577 1.288-1.285 1.288-.482 0-.807-.259-1.03-.58l-8.401-10.464-4.863 4.861v4.895a1.29 1.29 0 01-1.286 1.288c-.677 0-1.257-.58-1.257-1.288V18.5h-.006zm-67.711 9.516L55.287 6.651C54.926 4.303 52.694 0 46.688 0a1.5 1.5 0 100 3c4.856 0 5.575 3.729 5.639 4.143l4.767 19.701h-2.073c-.742-5.927-5.802-10.531-11.927-10.531s-11.186 4.604-11.927 10.531h-1.82c-.741-5.927-5.802-10.531-11.927-10.531S6.235 20.917 5.493 26.844H3.42L8.187 7.143C8.25 6.729 8.97 3 13.826 3a1.5 1.5 0 100-3C7.82 0 5.588 4.303 5.227 6.651L.052 28.016c-.266 1.109.531 1.826 1.426 1.826.012 0 .023.004.036.004h3.982c.741 5.926 5.802 10.53 11.927 10.53s11.185-4.604 11.927-10.53h1.814c.742 5.926 5.802 10.53 11.927 10.53s11.186-4.604 11.927-10.53H59c.012 0 .023-.004.036-.004.895 0 1.692-.717 1.426-1.826zm-34.147 1.828c-.715 4.272-4.421 7.531-8.896 7.531s-8.18-3.259-8.896-7.531a9.035 9.035 0 01-.135-1.5c0-.512.053-1.011.135-1.5.715-4.271 4.421-7.531 8.896-7.531s8.18 3.26 8.896 7.531c.082.489.135.988.135 1.5 0 .511-.053 1.011-.135 1.5zm25.675 0c-.716 4.272-4.421 7.531-8.896 7.531-4.475 0-8.181-3.259-8.896-7.531a9.035 9.035 0 01-.135-1.5c0-.512.053-1.011.135-1.5.716-4.271 4.421-7.531 8.896-7.531 4.475 0 8.181 3.26 8.896 7.531.082.489.135.988.135 1.5 0 .511-.053 1.011-.135 1.5z" fill="#FFF"/></symbol><symbol id="reviews__arrow" viewBox="0 0 21.527 41.374"><path fill="#7e868f" d="M2.028 20.687L21.281 1.435A.841.841 0 0020.092.246L.246 20.092a.84.84 0 000 1.188l19.847 19.846a.843.843 0 001.189 0 .84.84 0 000-1.188L2.028 20.687z"/></symbol><symbol id="reviews__quotes-desktop" viewBox="0 0 78.672 63.789"><path d="M34.967 7.063L30.713 0C28.272 1.495 0 12.207 0 39.617c0 7.23.336 24.172 18.9 24.172 11.187 0 13.94-10.279 13.94-13.584 0-21.977-21.382-14.178-21.382-14.178 0-18.07 19.805-26.843 23.509-28.964zm43.705 0L74.418 0c-2.439 1.495-30.713 12.207-30.713 39.617 0 7.23.337 24.172 18.9 24.172 11.187 0 13.939-10.279 13.939-13.584 0-21.977-21.381-14.178-21.381-14.178.002-18.07 19.806-26.843 23.509-28.964z"/></symbol><symbol id="social-list__facebook" viewBox="0 0 8.672 18.943"><path fill="#d22856" d="M6.275 3.357h2.397V.001H5.795C2.656.181 1.54 2.387 1.948 6.116H0v3.517h1.958v9.312h3.837V9.633h2.856V6.116H5.786c-.021-1.046-.035-2.407.489-2.759z"/></symbol><symbol id="social-list__twitter" viewBox="0 0 17.5 14.663"><path fill="#d22856" d="M11.283.153c1.736-.485 3.074.263 3.685 1.151.694-.226 1.372-.47 2.072-.692-.004.841-.538 1.478-.883 1.727.704.167 1.343-.479 1.343-.479-.175.976-1.035 1.746-1.611 1.977-.239 6.592-3.272 10.955-10.382 10.823h-.46c-.422 0-4.29-.449-5.047-1.843 2.341.192 4.011-.412 4.835-1.149-.989-.293-2.761-.465-3.07-2.881.362.104.583.223 1.228.116C1.757 8.067.385 7.366.461 5.218c.294.32 1.1.523 1.381.462C1.117 5.445-.188 2.399.921.844c1.873 1.81 3.848 3.52 7.369 3.684.216-2.24 1.171-3.741 2.993-4.375z"/></symbol><symbol id="social-list__youtube" viewBox="0 0 14.641 13.96"><path fill="#d22856" d="M1.775 13.78C.799 14.257 0 13.757 0 12.671V1.29C0 .202.799-.295 1.775.181l12.133 5.932c.975.478.975 1.258 0 1.736L1.775 13.78z"/></symbol><symbol id="tarrifs-no" viewBox="0 0 26.752 26.752"><path fill="#f25b26" d="M15.497 13.376L26.311 2.562A1.5 1.5 0 1024.19.441L13.376 11.255 2.562.439A1.5 1.5 0 10.441 2.56l10.814 10.815L.439 24.19a1.5 1.5 0 102.122 2.121l10.815-10.814L24.19 26.311a1.496 1.496 0 002.121 0 1.5 1.5 0 000-2.121L15.497 13.376z"/></symbol><symbol id="tarrifs-ok" viewBox="0 0 30.375 21.687"><path fill="#3dc644" d="M29.935.439a1.5 1.5 0 00-2.121 0L10.188 18.066l-7.627-7.627A1.5 1.5 0 10.44 12.56l8.688 8.689c.293.293.677.438 1.061.438.384 0 .768-.146 1.061-.438L29.935 2.561a1.5 1.5 0 000-2.122z"/></symbol><symbol id="upload-photo-contrast" viewBox="0 0 31.4 31.4"><path d="M15.8 4c6.5 0 11.8 5.3 11.8 11.8s-5.3 11.8-11.8 11.8S4 22.3 4 15.7 9.2 4 15.8 4m0-4C7.1 0 0 7.1 0 15.7c0 8.7 7 15.7 15.7 15.7s15.7-7 15.7-15.7C31.5 7.1 24.4 0 15.8 0z" fill="currentColor"/><path fill="currentColor" d="M15.8 24c4.6 0 8.4-3.8 8.4-8.4s-3.8-8.4-8.4-8.4"/></symbol><symbol id="upload-photo-crop" viewBox="2 2 44 44"><path fill="currentColor" d="M34 30h4V14c0-2.2-1.8-4-4-4H18v4h16v16zm-20 4V2h-4v8H2v4h8v20c0 2.2 1.8 4 4 4h20v8h4v-8h8v-4H14z"/></symbol><symbol id="upload-photo-fill" viewBox="0 0 43 38.5"><path fill="currentColor" d="M29.7 16l-16-16-2.5 2.5 4.3 4.3L6.2 16c-1 1-1 2.8 0 3.8l9.9 9.9c.5.5 1.2.8 1.9.8s1.4-.3 1.9-.8l9.9-9.9c.9-1 .9-2.7-.1-3.8zM9.3 17.9l8.6-8.6 8.6 8.6H9.3zM34 20.6s-3.6 3.9-3.6 6.3c0 2 1.6 3.6 3.6 3.6s3.6-1.6 3.6-3.6c0-2.4-3.6-6.3-3.6-6.3zM0 35.8h43v2.7H0z"/></symbol><symbol id="user-photos__like" viewBox="521.9 473.1 12.5 12"><path fill="currentColor" d="M530.7 474.5c1.3 0 2.3 1 2.3 2.3 0 .5-.2 1-.5 1.4l-4.3 4.9c-1.8-2-4-4.6-4.3-4.9-.2-.3-.5-.8-.5-1.5 0-1.3 1-2.3 2.3-2.3.8 0 1.5.3 1.9.9.1.2.3.3.6.3.2 0 .5-.1.6-.3.5-.4 1.2-.8 1.9-.8z"/><path fill="#d22856" d="M532.5 478.3c.3-.4.5-.9.5-1.4 0-1.3-1-2.3-2.3-2.3-.7 0-1.4.3-1.9.9-.1.2-.3.3-.6.3-.2 0-.4-.1-.6-.3-.4-.6-1.1-.9-1.9-.9-1.3 0-2.3 1-2.3 2.3 0 .7.3 1.2.5 1.5.2.3 2.5 2.8 4.3 4.9l4.3-5zm-1.8-5.2c2.1 0 3.8 1.7 3.8 3.8 0 .9-.3 1.8-.9 2.4l-4.9 5.6c-.1.2-.3.3-.5.3s-.4-.1-.5-.3c-3.8-4.3-4.7-5.3-4.9-5.6-.5-.7-.8-1.5-.8-2.4 0-2.1 1.7-3.8 3.8-3.8.9 0 1.8.3 2.5.9.6-.6 1.5-.9 2.4-.9z"/></symbol></svg>